<svg width="1440" height="1024" viewBox="0 0 1440 1024" fill="none" xmlns="http://www.w3.org/2000/svg">
<rect width="1440" height="1024" fill="#18181C"/>
<path d="M57.872 40.256C59.48 40.184 60.032 39.056 59.984 37.592C59.888 35.024 56.864 35.192 56.864 35.192H53.024V40.256H53.072C53.456 40.28 56.696 40.304 57.872 40.256ZM62.216 37.544C62.216 37.544 62.576 42.464 57.248 42.368C55.736 42.368 54.536 42.368 53.024 42.368V50H50.888V33.2H56.96C56.96 33.2 62.216 33.032 62.216 37.544ZM73.0745 48.44C77.2025 48.488 77.4905 44.336 77.4905 44.336V39.008C77.4905 39.008 77.4425 35.024 73.0745 34.976C68.7065 35.024 68.6345 39.008 68.6345 39.008V44.336C68.6345 44.336 69.0905 48.416 73.0745 48.44ZM73.0745 32.864C79.2665 32.864 79.7945 38.168 79.7945 39.008V44.336C79.7945 45.176 79.0985 50.504 73.0745 50.48C66.9305 50.48 66.3305 45.176 66.3305 44.336V39.008C66.3305 38.168 66.7625 32.864 73.0745 32.864ZM89.2203 43.208V41.12H96.2763V50H94.1163L94.1883 47.312C93.2763 49.64 91.9083 50.168 90.4923 50.168C84.6843 50.168 84.4683 44.816 84.4683 43.976V39.032C84.4683 38.192 84.6843 33.008 90.4923 33.008C96.3003 33.008 96.2763 38.072 96.2763 38.072H94.1163C94.1163 38.072 94.0923 35.096 90.6363 35.096C86.5803 35.096 86.7243 39.032 86.7243 39.032V43.976C86.7243 43.976 86.8203 48.104 90.6123 48.176C94.0683 48.128 93.9723 44.936 93.9723 44.936V43.208H89.2203ZM99.7233 33.2H111.387V35.36H106.611V50H104.451V35.36H99.7233V33.2ZM116.197 50V33.2H118.357V50H116.197ZM135.639 33.2H137.799V50H135.639V37.424L130.743 46.208H130.167L125.175 37.424V50H123.015V33.2H125.175L130.287 42.176H130.599L135.639 33.2ZM142.793 33.2H154.241V35.36H144.953V40.28H152.633V42.44H144.953V47.84H154.241V50H144.953H142.793V47.84V42.44V40.28V35.36V33.2Z" fill="#F1F1F3"/>
<line x1="30.5" y1="78" x2="1409.5" y2="78" stroke="#39383D" stroke-width="2" stroke-linecap="round"/>
<path d="M1293.09 34.8H1294.53V44.56H1299.84V46H1294.53H1293.09V44.56V34.8ZM1304.09 44.704C1306.1 44.704 1306.29 43.12 1306.34 41.696C1306.39 40.096 1305.83 38.624 1304.09 38.624C1302.53 38.624 1301.91 40.096 1301.91 41.696C1301.91 43.04 1302.29 44.704 1304.09 44.704ZM1304.09 37.264C1306.44 37.264 1307.89 39.232 1307.83 41.696C1307.78 44.112 1306.92 46.144 1304.09 46.128C1301.33 46.112 1300.34 44.112 1300.34 41.696C1300.34 39.232 1301.72 37.264 1304.09 37.264ZM1311.94 38.768C1311.94 38.768 1310.45 38.704 1310.43 40.032C1310.42 41.344 1311.94 41.296 1311.94 41.296C1311.94 41.296 1313.6 41.424 1313.65 40.096C1313.7 38.704 1311.94 38.768 1311.94 38.768ZM1313.25 45.344H1311.6C1311.6 45.344 1310.03 45.232 1310.03 46.288C1310.03 47.232 1311.41 47.232 1311.41 47.232H1313.41C1313.41 47.232 1314.64 47.264 1314.64 46.288C1314.64 45.312 1313.25 45.344 1313.25 45.344ZM1315.12 39.296C1315.12 39.296 1315.86 42.656 1312.08 42.656C1312.08 42.656 1311.28 42.656 1310.51 42.4C1310.51 42.4 1310.21 42.4 1310.05 43.04C1309.83 43.984 1311.35 43.984 1311.35 43.984H1312.83C1312.83 43.984 1316.15 43.776 1316.1 46.352C1316.07 48.32 1314.75 48.608 1313.55 48.608H1311.06C1311.06 48.608 1308.48 48.608 1308.53 46.624C1308.58 45.184 1309.83 45.056 1309.83 45.056C1309.83 45.056 1308.64 44.832 1308.71 43.84C1308.77 42.848 1310.1 42.176 1310.1 42.176C1310.1 42.176 1308.93 41.6 1308.93 39.92C1308.93 38.24 1310.05 37.344 1312.05 37.36C1312.05 37.36 1313.94 37.344 1314.59 38.416C1314.59 38.416 1315.17 37.264 1316.74 37.376V38.768C1316.74 38.768 1315.14 38.688 1315.12 39.296ZM1322.47 46V34.8H1323.91V46H1322.47ZM1329.01 37.376C1331.46 37.376 1331.51 39.344 1331.51 40.064V45.984C1331.49 45.984 1331.46 45.984 1331.44 45.984V46H1329.96L1329.92 39.6C1329.92 39.6 1329.96 38.496 1328.8 38.528C1328.8 38.528 1326.68 38.432 1326.64 41.456V46H1325.11V37.376H1326.76L1326.72 39.056C1327.06 37.776 1327.91 37.376 1329.01 37.376Z" fill="#F1F1F3"/>
<path d="M1232.92 46.192C1232.92 46.192 1229.32 46.288 1229.12 42.784H1230.72C1230.72 42.784 1230.9 44.736 1232.93 44.72C1235.08 44.704 1235.01 42.72 1235.01 42.72C1234.96 40.88 1232.8 40.944 1232.8 40.944C1229.03 41.04 1229.11 37.68 1229.11 37.68C1229.04 34.448 1232.82 34.624 1232.82 34.624C1232.82 34.624 1236.44 34.496 1236.48 38.048H1235.01C1235.01 38.048 1234.95 36.096 1232.8 36.048C1232.8 36.048 1230.66 35.936 1230.66 37.808C1230.66 37.808 1230.61 39.504 1232.93 39.456C1234.9 39.424 1236.48 40.64 1236.48 42.72C1236.48 42.72 1236.56 46.176 1232.92 46.192ZM1237.55 46V37.392H1239.16V46H1237.55ZM1237.56 36.544V35.056H1239.13V36.544H1237.56ZM1243.41 38.768C1243.41 38.768 1241.92 38.704 1241.9 40.032C1241.89 41.344 1243.41 41.296 1243.41 41.296C1243.41 41.296 1245.07 41.424 1245.12 40.096C1245.17 38.704 1243.41 38.768 1243.41 38.768ZM1244.72 45.344H1243.07C1243.07 45.344 1241.5 45.232 1241.5 46.288C1241.5 47.232 1242.88 47.232 1242.88 47.232H1244.88C1244.88 47.232 1246.11 47.264 1246.11 46.288C1246.11 45.312 1244.72 45.344 1244.72 45.344ZM1246.59 39.296C1246.59 39.296 1247.33 42.656 1243.55 42.656C1243.55 42.656 1242.75 42.656 1241.98 42.4C1241.98 42.4 1241.68 42.4 1241.52 43.04C1241.29 43.984 1242.81 43.984 1242.81 43.984H1244.3C1244.3 43.984 1247.61 43.776 1247.57 46.352C1247.53 48.32 1246.22 48.608 1245.02 48.608H1242.53C1242.53 48.608 1239.95 48.608 1240 46.624C1240.05 45.184 1241.29 45.056 1241.29 45.056C1241.29 45.056 1240.11 44.832 1240.17 43.84C1240.24 42.848 1241.57 42.176 1241.57 42.176C1241.57 42.176 1240.4 41.6 1240.4 39.92C1240.4 38.24 1241.52 37.344 1243.52 37.36C1243.52 37.36 1245.41 37.344 1246.06 38.416C1246.06 38.416 1246.64 37.264 1248.21 37.376V38.768C1248.21 38.768 1246.61 38.688 1246.59 39.296ZM1253.17 37.376C1255.62 37.376 1255.66 39.344 1255.66 40.064V45.984C1255.65 45.984 1255.62 45.984 1255.6 45.984V46H1254.11L1254.08 39.6C1254.08 39.6 1254.11 38.496 1252.96 38.528C1252.96 38.528 1250.83 38.432 1250.8 41.456V46H1249.26V37.376H1250.91L1250.88 39.056C1251.22 37.776 1252.06 37.376 1253.17 37.376ZM1267.76 41.984L1267.74 34.8H1269.26V41.984C1269.26 42.384 1269.18 44.24 1267.74 45.296C1267.18 45.696 1266.41 45.984 1265.34 46C1265.34 46 1265.34 46 1265.32 46C1264.25 45.984 1263.48 45.696 1262.91 45.296C1261.47 44.24 1261.4 42.384 1261.4 41.984V34.8H1262.91V41.984C1262.96 42.448 1262.91 44.48 1265.32 44.544C1267.76 44.48 1267.71 42.448 1267.76 41.984ZM1272.02 41.728C1271.99 44.688 1273.84 44.8 1273.84 44.8C1273.84 44.8 1275.57 45.296 1275.68 41.952C1275.68 41.952 1275.81 38.56 1274 38.512C1271.88 38.48 1272.02 41.728 1272.02 41.728ZM1277.19 41.888C1277.19 47.328 1272.26 46.784 1271.97 44.224L1271.99 48.624H1270.45V37.408H1271.97V38.992C1272.5 37.792 1273.97 36.816 1275.6 37.744C1277.32 38.704 1277.19 41.888 1277.19 41.888Z" fill="#F1F1F3"/>
<path d="M1357.5 42H1389.5" stroke="#F1F1F3" stroke-width="2" stroke-linecap="round" stroke-linejoin="round"/>
<path d="M1357.5 54H1389.5" stroke="#F1F1F3" stroke-width="2" stroke-linecap="round" stroke-linejoin="round"/>
<path d="M1357.5 30H1389.5" stroke="#F1F1F3" stroke-width="2" stroke-linecap="round" stroke-linejoin="round"/>
</svg>
